<?xml version="1.0" encoding="utf-8"?>
<!-- Generator: Adobe Illustrator 15.0.0, SVG Export Plug-In . SVG Version: 6.00 Build 0)  -->
<!DOCTYPE svg PUBLIC "-//W3C//DTD SVG 1.1//EN" "http://www.w3.org/Graphics/SVG/1.1/DTD/svg11.dtd">
<svg version="1.1" id="Camada_1" xmlns="http://www.w3.org/2000/svg" xmlns:xlink="http://www.w3.org/1999/xlink" x="0px" y="0px"
	 width="540.5px" height="470.5px" viewBox="0 0 540.5 470.5" enable-background="new 0 0 540.5 470.5" xml:space="preserve">
<g>
	<path fill-rule="evenodd" clip-rule="evenodd" fill="#FFFFFF" d="M151.779,9.874c40.542-4.552,83.198-0.9,126.894-0.9
		c18.985,0,41.49,0,62.997,0c19.94,0,44.353-2.12,59.397,2.7c14.938,4.786,32.11,20.465,36.898,38.698
		c5.941,22.627,1.8,64.718,1.8,93.596c0,62.9,0,121.24,0,188.991c0,31.495,4.035,71.912-2.7,91.796
		c-4.995,14.75-17.832,27.981-35.099,34.198c-15.016,5.405-39.308,3.6-62.996,3.6c-47.135,0-84.721,0-133.194,0
		c-22.969,0-48.142,1.812-63.897-2.7c-17.682-5.063-31.271-16.557-37.798-34.198c-7.856-21.235-3.6-60.619-3.6-92.695
		c0-81.49,0-158.756,0-241.189c0-17.229-1.385-32.938,2.7-44.998C109.541,27.996,128.811,12.453,151.779,9.874z M128.38,98.07
		c0,78.514,0,158.431,0,236.689c0,25.144-5.805,73.925,5.4,89.096c10.629,14.394,44.186,10.8,68.397,10.8
		c53.476,0,81.244,0,134.094,0c20.441,0,51.385,2.679,62.997-4.5c14.55-8.994,12.6-26.554,12.6-52.197c0-84.329,0-159.575,0-238.489
		c0-26.324,6.017-75.365-4.5-90.896c-10.187-15.043-37.9-11.7-66.597-11.7c-21.58,0-42.691,0-61.197,0
		c-44.669,0-86.795-3.547-124.194,0.9C124.456,41.45,128.38,63.891,128.38,98.07z"/>
	<path fill-rule="evenodd" clip-rule="evenodd" fill="#FFFFFF" d="M168.328,123.269c13.021-3.259,38.867-0.9,56.698-0.9
		c38.976,0,66.323,0,109.795,0c17.605,0,52.125-6.024,48.598,17.099c-2.299,15.069-31.613,10.799-51.298,10.799
		c-46.021,0-75.302,0-122.395,0c-19.494,0-49.061,3.508-52.198-9C155.059,131.417,159.25,125.541,168.328,123.269z"/>
	<path fill-rule="evenodd" clip-rule="evenodd" fill="#FFFFFF" d="M165.985,208.765c11.788-3.838,40.37-0.9,56.697-0.9
		c39.867,0,68.891,0,111.595,0c21.931,0,58.694-5.542,47.697,20.699c-4.465,10.656-35.79,7.2-53.098,7.2
		c-43.016,0-74.488,0-118.794,0c-17.919,0-47.594,3.786-52.198-7.2C154.483,220.443,157.524,211.52,165.985,208.765z"/>
	<path fill-rule="evenodd" clip-rule="evenodd" fill="#FFFFFF" d="M210.636,293.36c17.758-4.445,48.183-0.899,72.896-0.899
		c19.318,0,56.885-5.604,57.597,13.499c0.662,17.759-19.062,14.399-39.598,14.399c-14.045,0-24.382,0-36.898,0
		c-22.504,0-61.712,5.456-64.797-9.899C197.798,300.315,202.387,295.425,210.636,293.36z"/>
</g>
</svg>
