<?xml version="1.0" encoding="utf-8"?>
<!-- Generator: Adobe Illustrator 25.1.0, SVG Export Plug-In . SVG Version: 6.00 Build 0)  -->
<svg version="1.1" id="Camada_1" xmlns="http://www.w3.org/2000/svg" xmlns:xlink="http://www.w3.org/1999/xlink" x="0px" y="0px"
	 viewBox="0 0 675 264.2" style="enable-background:new 0 0 675 264.2;" xml:space="preserve" preserveAspectRatio="xMaxYMax meet">
<style type="text/css">
	.st0{fill:#FFFFFF;}
</style>
<g>
	<g>
		<g>
			<path class="st0" d="M96.9,19.7c-1,0-2,0-3,0.1v53.9c-0.2,14.9-23.5,15.4-23.4,0V28.5c-11,8.1-18.2,21.2-18.2,35.9
				c0,24.6,20.1,44.7,44.6,44.7c24.6,0,44.7-20.1,44.7-44.7C141.5,39.8,121.5,19.7,96.9,19.7"/>
			<path class="st0" d="M171.7,142.9H23.2V84h29.9c7.5,17,24.5,29,44.2,29s36.7-11.9,44.2-29h30.2V142.9z"/>
			<g>
				<path class="st0" d="M44.3,153.1c1,0,1.8,0.1,2.3,0.4c0.4,0.2,0.6,0.5,0.9,1c0.2,0.5,0.4,1.3,0.4,2.4v10.1
					c0,2.6-0.2,4.4-0.7,5.5s-1.1,1.9-2.1,2.5c-0.9,0.6-2.1,0.9-3.4,0.9c-1.1,0-2.1-0.2-2.9-0.7c-0.8-0.5-1.3-1.1-1.7-1.8
					c-0.3-0.7-0.5-2.2-0.5-4.4v-12.1c0-1.4,0.1-2.3,0.2-2.7c0.1-0.3,0.4-0.6,0.8-0.8c0.4-0.2,1-0.3,2-0.3h0.6v-0.7H27.4v0.7
					c1.1,0,1.8,0.1,2.2,0.3c0.4,0.2,0.7,0.5,0.8,0.8c0.1,0.4,0.2,1.2,0.2,2.7v12.1c0,2.1,0.3,3.7,1,4.9s1.8,2.2,3.4,3
					c1.2,0.6,2.8,0.9,5,0.9c2.6,0,4.6-0.6,6.1-1.6c1.5-1.1,2.4-2.3,2.8-3.6c0.4-1.3,0.6-3.4,0.6-6.3v-9.4c0-1,0.1-1.7,0.2-2.1
					c0.2-0.6,0.6-1,1-1.3c0.5-0.3,1.1-0.4,1.7-0.4h0.5v-0.7h-8.5L44.3,153.1L44.3,153.1z"/>
				<path class="st0" d="M77.4,173.8l-6-8.4c1.5-0.4,2.7-0.9,3.5-1.7c1.3-1.2,2-2.7,2-4.5c0-1.5-0.4-2.8-1.3-3.9
					c-0.9-1.1-2-1.9-3.4-2.3c-1.2-0.3-2.8-0.5-5.1-0.6c-0.5,0-1,0-1.5,0H54.1v0.7c1.1,0,1.9,0.1,2.3,0.3c0.4,0.2,0.7,0.5,0.9,0.8
					c0.1,0.4,0.2,1.2,0.2,2.5v16.1c0,1.3-0.1,2.1-0.2,2.5c-0.2,0.4-0.5,0.6-0.9,0.8s-1.2,0.3-2.3,0.3v0.7h12.7v-0.7
					c-1.1,0-1.9-0.1-2.3-0.3c-0.4-0.2-0.7-0.5-0.9-0.9c-0.1-0.3-0.2-1.2-0.2-2.5v-7H65l2.2,3L73,177h7.8v-0.7
					c-0.6,0-1.2-0.2-1.7-0.6C78.7,175.6,78.2,174.9,77.4,173.8z M70.2,162.4c-0.5,0.8-1.2,1.4-2,1.7c-0.3,0.1-0.7,0.2-1.1,0.3
					c-0.7,0.1-1.7,0.2-2.7,0.2h-1v-10.8h1.9c0.7,0,1.3,0.1,1.8,0.2c1,0.2,1.9,0.6,2.4,1.2c0.9,0.9,1.3,2.3,1.3,4.2
					C71,160.6,70.7,161.6,70.2,162.4z"/>
				<path class="st0" d="M163.7,154.2c0.2-0.4,0.4-0.7,0.7-0.9c0.4-0.3,1-0.4,1.7-0.4h0.8v-0.7h-10.1l-6.7,16.3l-6.9-16.3h-10.1v0.7
					h0.8c0.7,0,1.2,0.1,1.7,0.4c0.4,0.2,0.7,0.5,0.8,0.8s0.2,1.1,0.2,2.4v15.7c0,1.1,0,1.7,0,1.9c-0.1,0.6-0.3,1-0.6,1.3
					s-0.6,0.6-1.1,0.8s-1,0.3-1.5,0.3h-0.3v0.7h8.5v-0.7c-1.2,0-2-0.2-2.5-0.6c-0.5-0.4-0.9-0.9-1-1.5c-0.1-0.3-0.1-1-0.1-2.2v-17.5
					l9.6,22.4h0.4l9.5-22.6v18.3c0,1.2-0.1,2-0.2,2.3c-0.2,0.4-0.4,0.7-0.7,0.9c-0.4,0.3-1,0.4-1.8,0.4H154v0.7h13v-0.7h-0.8
					c-0.7,0-1.2-0.1-1.7-0.4c-0.4-0.2-0.7-0.5-0.8-0.8s-0.2-1.1-0.2-2.4v-16.3C163.5,155.4,163.6,154.6,163.7,154.2z"/>
				<path class="st0" d="M102,165.9c-1-0.8-2.6-1.4-5-2c2.2-0.6,3.7-1.3,4.5-2.2c0.9-0.9,1.3-2,1.3-3.2c0-1.1-0.3-2.2-1-3.2
					s-1.6-1.8-2.8-2.3c-1.1-0.4-2.9-0.7-5.5-0.7H93H81.2v0.7c1.1,0,1.9,0.1,2.3,0.3s0.7,0.5,0.9,0.8c0.2,0.4,0.3,1.2,0.3,2.5v16.1
					c0,1.3-0.1,2.1-0.3,2.5c-0.1,0.4-0.4,0.6-0.9,0.8c-0.4,0.2-1.2,0.3-2.3,0.3v0.7h12.4h0.2c3.5,0,6.2-0.7,8-2.2
					c1.5-1.2,2.2-2.8,2.2-4.6C104.1,168.6,103.4,167.1,102,165.9z M90.4,153.8c1.4,0,2.4,0.1,3.2,0.3c0.3,0.1,0.5,0.1,0.7,0.2
					c0.8,0.4,1.4,0.9,1.8,1.6c0.4,0.7,0.7,1.6,0.7,2.7c0,1.1-0.2,2-0.7,2.7c-0.4,0.7-1.1,1.3-1.9,1.7c-0.2,0.1-0.4,0.2-0.6,0.2
					c-0.8,0.2-1.8,0.4-3.2,0.4V153.8z M97,173.2c-0.4,0.8-1.1,1.5-1.9,1.9c-0.4,0.3-0.9,0.4-1.5,0.5c-0.4,0.1-0.8,0.1-1.2,0.1
					c-0.6,0-1.1-0.2-1.5-0.5s-0.5-0.8-0.5-1.5v-0.9v-8c1.3,0,2.4,0.1,3.2,0.2c0.4,0.1,0.7,0.2,1,0.3c0.9,0.4,1.6,1,2.2,1.9
					c0.5,0.9,0.8,1.9,0.8,3.1C97.6,171.4,97.4,172.4,97,173.2z"/>
				<path class="st0" d="M128.1,172.1l-8.9-20.3h-0.4l-2.3,5l-6.6,14.7c-0.8,1.9-1.5,3.1-2.1,3.7c-0.6,0.6-1.3,1-2.2,1.1v0.7h8.3
					v-0.7c-1.3-0.1-2.1-0.2-2.4-0.4c-0.6-0.3-0.8-0.8-0.8-1.5c0-0.5,0.2-1.2,0.5-2l1-2.4h4.4h4.4l1.3,3.1c0.3,0.8,0.5,1.2,0.5,1.4
					c0.1,0.2,0.1,0.4,0.1,0.7c0,0.4-0.1,0.6-0.4,0.8c-0.4,0.3-1.1,0.4-2,0.4H120v0.7h12v-0.7c-0.7-0.1-1.3-0.3-1.7-0.6
					C129.6,175.2,128.9,174.1,128.1,172.1z M116.6,168.8h-3.7l3.7-8.4l0.1-0.1l3.7,8.5H116.6z"/>
			</g>
		</g>
		<g>
			<path class="st0" d="M118.1,198.9c-0.3-0.1-0.6-0.1-1-0.1h-0.8v10.6h0.8c0.4,0,0.7,0,1-0.1c0.5-0.2,0.9-0.5,1.2-1l0,0
				c0.5-0.8,0.7-2.2,0.7-4.2s-0.2-3.4-0.7-4.2C119,199.4,118.6,199.1,118.1,198.9z"/>
			<path class="st0" d="M100.3,220.6c-0.3-0.1-0.6-0.1-1-0.1H99v4.3h0.5c0.3,0,0.6,0,0.8-0.1c0.4-0.1,0.7-0.2,0.9-0.4l0,0
				c0.3-0.3,0.5-0.9,0.5-1.7c0-0.7-0.2-1.3-0.5-1.7C101,220.8,100.7,220.6,100.3,220.6z"/>
			<polygon class="st0" points="75.3,206.6 77.4,206.6 76.3,201.4 			"/>
			<polygon class="st0" points="107,228.4 109.2,228.4 108.1,223.2 			"/>
			<polygon class="st0" points="107.1,206.6 109.3,206.6 108.2,201.4 			"/>
			<path class="st0" d="M128.1,198.6c-0.7,0-1.2,0.4-1.5,1.1c-0.3,0.8-0.5,2.3-0.5,4.3s0.2,3.5,0.5,4.4c0.3,0.8,0.8,1.1,1.5,1.1
				c0.7,0,1.2-0.4,1.5-1.1c0.3-0.8,0.5-2.3,0.5-4.4c0-2-0.2-3.5-0.5-4.4C129.3,198.9,128.8,198.6,128.1,198.6z"/>
			<polygon class="st0" points="145.6,206.6 147.8,206.6 146.7,201.4 			"/>
			<path class="st0" d="M22.9,185.8v58.8h148.8v-58.8H22.9z M55,196.4h2.6c0.4,0,0.7,0,1,0c1.2,0.1,2,0.4,2.5,0.9
				c0.7,0.6,1.1,1.7,1.1,3.1c0,1.1-0.3,2-0.7,2.7c-0.4,0.6-1.1,1-1.9,1.1l3.5,7.3h-2.6l-3.1-6.6v6.6H55V196.4z M44.7,207.6v-11H47
				v11.2c0,0.7,0.1,1.1,0.4,1.4c0.3,0.3,0.7,0.4,1.3,0.4s1.1-0.1,1.3-0.4c0.3-0.3,0.4-0.8,0.4-1.4v-11.2h2.4v11c0,1.5-0.3,2.6-1,3.3
				s-1.7,1-3.1,1c-1.4,0-2.4-0.3-3.1-1C45,210.1,44.7,208.9,44.7,207.6z M55.1,233.4l-0.5-8.9l-1.7,8.9h-1.7l-1.7-8.9l-0.5,8.9h-2.2
				l1.3-15.1h2.1l1.8,9.4l1.9-9.4H56l1.3,15.1H55.1z M67.1,229.4c0,1.4-0.3,2.5-1,3.3c-0.7,0.7-1.7,1-3.1,1c-1.4,0-2.4-0.3-3.1-1
				c-0.7-0.7-1-1.8-1-3.3v-11h2.4v11.2c0,0.7,0.1,1.1,0.4,1.4c0.3,0.3,0.7,0.4,1.3,0.4s1.1-0.1,1.3-0.4c0.3-0.3,0.4-0.8,0.4-1.4
				v-11.2h2.4C67.1,218.4,67.1,229.4,67.1,229.4z M66.9,211.6h-3.1v-15.1h2.9c0.3,0,0.5,0,0.7,0c1.2,0.1,2,0.4,2.5,0.9
				c0.7,0.6,1,1.6,1,3c0,1-0.2,1.8-0.5,2.4c-0.3,0.4-0.6,0.8-1.1,1c0.5,0.2,1,0.5,1.3,1c0.4,0.6,0.6,1.4,0.6,2.4
				c0,1.5-0.4,2.6-1.1,3.4c-0.6,0.6-1.5,1-2.7,1.1C67.3,211.6,67.1,211.6,66.9,211.6z M77.2,233.4H75l-3.6-9.4v9.4h-2.3v-15.1h2.2
				l3.6,9.4v-9.4h2.3V233.4z M77.9,208.8h-3l-0.7,2.9h-2.4l3.6-15.1h2.2l3.5,15.1h-2.4L77.9,208.8z M81.8,233.4h-2.4v-15.1h2.4
				V233.4z M82,196.4h2.2v0.1l3.5,9.2v-9.4H90v15.1h-2.2l-3.6-9.4v9.4H82V196.4z M90.5,220.9l-0.3-0.1c-0.3-0.1-0.5-0.2-0.8-0.3
				c-0.2-0.1-0.4-0.1-0.6-0.1c-1,0-1.7,0.4-2.2,1.3c-0.5,0.9-0.7,2.4-0.7,4.3c0,1.8,0.2,3.2,0.7,4.1c0.4,0.8,1.1,1.2,1.9,1.2
				c0.3,0,0.5-0.1,0.8-0.1c0.3-0.1,0.6-0.2,0.9-0.4l0.3-0.2v2.4l-0.1,0.1c-0.3,0.1-0.7,0.3-1,0.4c-0.3,0.1-0.7,0.1-1.1,0.1
				c-1.6,0-2.8-0.7-3.6-2c-0.8-1.3-1.1-3.2-1.1-5.7s0.4-4.5,1.2-5.8c0.8-1.4,2.1-2.1,3.7-2.1c0.3,0,0.7,0.1,1,0.1
				c0.4,0.1,0.7,0.2,0.9,0.3l0.1,0.1C90.5,218.6,90.5,220.9,90.5,220.9z M94.3,233.4h-2.4v-15.1h2.4V233.4z M94.6,211.6h-2.3v-15.1
				h2.3V211.6z M96.5,198.6v-2.2h7.3L99,209.4h4.2v2.3h-7.6l4.8-13L96.5,198.6L96.5,198.6z M100.4,226.9c-0.3,0.1-0.7,0.1-1.1,0.1
				H99v6.5h-2.4v-15.1h2.6c0.5,0,0.9,0,1.2,0.1c0.4,0,0.7,0.1,1,0.2c0.5,0.1,1,0.3,1.4,0.7c0.5,0.4,0.8,0.8,1.1,1.5
				c0.1,0.3,0.2,0.6,0.3,0.9c0.1,0.3,0.1,0.7,0.1,1.1c0,0.4-0.1,0.8-0.1,1.2c-0.2,0.8-0.6,1.5-1.1,2.1
				C102.2,226.4,101.4,226.8,100.4,226.9z M110.3,233.4l-0.7-2.9h-3l-0.7,2.9h-2.4l0.2-0.7l3.4-14.4h2.2v0.2l3.5,15h-2.5V233.4z
				 M110.5,211.6l-0.7-2.9h-3l-0.7,2.9h-2.4l3.6-15.1h2.2v0.2l3.5,15L110.5,211.6L110.5,211.6z M120.4,233.4h-6.6v-15.1h2.4v12.9
				h4.2V233.4z M121.1,209.9c-0.7,0.9-1.6,1.4-2.9,1.6c-0.4,0.1-0.9,0.1-1.5,0.1h-2.8v-15.1h2.8c0.6,0,1.1,0,1.5,0.1
				c1.3,0.2,2.3,0.7,2.9,1.6c0.8,1.1,1.3,3.1,1.3,5.8C122.4,206.9,122,208.8,121.1,209.9z M130.9,232.4c-0.7,0.8-1.7,1.2-2.9,1.2
				c-0.4,0-0.9-0.1-1.3-0.2c-0.4-0.1-0.8-0.3-1.3-0.5l-0.2-0.1v-2.5l0.3,0.2c0.4,0.3,0.8,0.5,1.3,0.6c0.4,0.1,0.7,0.2,1.1,0.2
				c0.6,0,1-0.2,1.3-0.5s0.5-0.8,0.5-1.3c0-0.8-0.7-1.7-2-2.8c-0.1-0.1-0.2-0.2-0.2-0.2c-0.1,0-0.1-0.1-0.1-0.1
				c-0.9-0.8-1.5-1.4-1.9-2c-0.4-0.7-0.5-1.4-0.5-2.2c0-1.2,0.4-2.1,1.1-2.9c0.8-0.8,1.7-1.2,2.8-1.2c0.5,0,0.9,0.1,1.4,0.2
				c0.5,0.1,0.9,0.3,1.3,0.5l0.1,0.1v2.5l-0.3-0.2c-0.4-0.3-0.7-0.5-1.1-0.6c-0.3-0.1-0.7-0.2-1-0.2c-0.6,0-1,0.2-1.4,0.5
				c-0.3,0.3-0.5,0.8-0.5,1.3c0,0.8,0.7,1.7,2.1,2.9l0,0c0.1,0.1,0.2,0.2,0.3,0.2c0.8,0.7,1.5,1.3,1.8,2c0.4,0.7,0.6,1.4,0.6,2.2
				C132,230.6,131.6,231.6,130.9,232.4z M131.4,209.9c-0.7,1.2-1.8,1.8-3.4,1.8c-1.6,0-2.7-0.6-3.4-1.8c-0.7-1.2-1-3.2-1-5.9
				s0.3-4.7,1-5.9s1.8-1.9,3.4-1.9c1.5,0,2.7,0.6,3.4,1.9c0.7,1.2,1,3.1,1,5.9C132.5,206.9,132.1,208.8,131.4,209.9z M135,233.2
				c-0.3,0.3-0.6,0.4-1,0.4s-0.7-0.1-0.9-0.4c-0.3-0.3-0.4-0.6-0.4-1s0.1-0.7,0.4-1c0.3-0.2,0.6-0.4,0.9-0.4c0.4,0,0.7,0.1,1,0.4
				c0.3,0.3,0.4,0.6,0.4,1S135.2,232.9,135,233.2z M142.8,233.4l-0.7-2.9h-3l-0.7,2.9H136l3.5-15.1h2.2v0.2l3.5,15L142.8,233.4
				L142.8,233.4z M148.7,233.2c-0.3,0.3-0.6,0.4-1,0.4s-0.7-0.1-0.9-0.4c-0.3-0.3-0.4-0.6-0.4-1s0.1-0.7,0.4-1
				c0.3-0.3,0.6-0.4,0.9-0.4c0.4,0,0.7,0.1,1,0.4l0,0c0.3,0.3,0.4,0.6,0.4,1C149.1,232.6,149,233.1,148.7,233.2z M148.9,211.6
				l-0.7-2.9h-3l-0.7,2.9h-2.1H142h-2.3l-3.1-6.6v6.6h-2.4v-15.1h2.6c0.4,0,0.7,0,1,0c1.2,0.1,2,0.4,2.5,0.9
				c0.7,0.6,1.1,1.7,1.1,3.1c0,1.1-0.2,2-0.7,2.7l0,0c-0.5,0.6-1.1,1-2,1.1l3.3,6.9l3.5-14.7h2.2v0.2l3.5,15L148.9,211.6
				L148.9,211.6z"/>
			<path class="st0" d="M138.7,199.1c-0.2-0.2-0.5-0.3-0.8-0.3s-0.6-0.1-0.8-0.1h-0.4v4.3h0.4c0.3,0,0.5,0,0.8-0.1s0.6-0.2,0.8-0.4
				c0.3-0.4,0.5-1,0.5-1.9C139.1,199.8,139,199.2,138.7,199.1z"/>
			<g>
				<path class="st0" d="M68.4,205.4c-0.2-0.2-0.5-0.4-1-0.5c-0.2-0.1-0.4-0.1-0.7-0.1h-0.5v4.5h0.5c0.3,0,0.5,0,0.8-0.1
					c0.4-0.1,0.7-0.2,1-0.4c0.3-0.3,0.5-0.9,0.5-1.7C68.9,206.4,68.7,205.8,68.4,205.4z"/>
				<path class="st0" d="M67.4,202.8c0.3-0.1,0.6-0.2,0.8-0.4c0.3-0.3,0.5-0.9,0.5-1.6c0-0.8-0.1-1.3-0.4-1.6
					c-0.2-0.2-0.5-0.3-0.9-0.4c-0.2,0-0.4,0-0.7,0h-0.5v4.1h0.5C67,202.8,67.2,202.8,67.4,202.8z"/>
				<path class="st0" d="M58.5,198.6c-0.2,0-0.5-0.1-0.8-0.1h-0.4v4.3h0.4c0.3,0,0.5,0,0.7-0.1c0.3-0.1,0.6-0.2,0.8-0.4
					c0.3-0.4,0.5-1,0.5-1.9c0-0.7-0.1-1.2-0.4-1.5C59.2,198.9,58.9,198.8,58.5,198.6z"/>
			</g>
			<polygon class="st0" points="139.5,228.4 141.6,228.4 140.6,223.2 			"/>
		</g>
		<path class="st0" d="M85.1,76c-0.1,5.3-9.4,4.2-9.6-2.4c0-16.2-0.1-32.5-0.1-48.7c-0.6,0.3-1.2,0.7-1.8,1.1v47.6
			c0.1,10.9,16.8,11.1,16.8,0V20.2c-1.7,0.2-3.4,0.6-5.3,1.1C85.1,21.3,85.1,76,85.1,76z"/>
	</g>
	<g>
		<path class="st0" d="M245.6,91.4c-0.6,0.4-1.1,0.6-2.1,0.8c-1,0.2-1.9,0.4-2.9,0.4v21.2c0,3.8,1,6.5,2.7,8.4s4.4,2.9,7.8,2.9
			c1.5,0,2.9-0.2,4.4-0.4c1.5-0.4,2.7-0.8,3.6-1.3c1.1-1.1,1.9-2.7,2.5-4.6s1-4,1-6.5V92.5h-0.2c-1.1,0-2.1-0.2-2.9-0.4
			c-1-0.2-1.5-0.6-2.1-0.8v-5.1h17.2v5.1c-0.4,0.2-1.1,0.6-2.1,0.8s-1.9,0.4-3,0.4v20.2c0,6.5-1.7,11.4-5.1,14.5
			c-3.4,3-8.2,4.8-14.5,4.8c-2.3,0-4.6-0.2-6.7-0.8c-2.1-0.6-4-1.5-5.7-2.9c-1.7-1.4-3-3-4-5.1s-1.5-4.8-1.5-8V92.5
			c-1,0-1.9-0.2-2.9-0.4s-1.5-0.6-2.1-0.8v-5.1h18.5v5.1h0.1V91.4z"/>
		<path class="st0" d="M279,125.9c0.8-0.2,1.5-0.4,2.5-0.4v-18.7c-0.4,0-1.1-0.2-2.1-0.4c-1-0.2-1.7-0.6-2.3-1v-5.1h10.7
			c0.4,0.6,0.6,1.1,1,2.1c0.2,1,0.4,1.9,0.4,2.9v0.2c1.7-2.1,3.2-3.4,5.1-4.4c1.7-1,3.6-1.3,5.9-1.3c0.8,0,1.3,0,2.1,0.2
			c0.6,0,1.1,0.2,1.7,0.4v11.2h-5.5c-0.8-1.1-1.3-2.5-1.5-4c-1.1,0-2.3,0.4-3.4,1s-2.3,1.3-3.4,2.5v14.1h0.2c1.1,0,2.1,0.2,3,0.4
			c1,0.2,1.5,0.6,2.1,1v4.4h-17.7v-4.4C277.5,126.3,278.2,126.1,279,125.9z"/>
		<path class="st0" d="M318.2,83.8v19.6c2.9-2.7,6.3-3.8,9.9-3.8c2.3,0,4.4,0.4,6.1,1.1s3.1,1.9,4,3.2s1.7,2.9,2.1,4.4
			c0.4,1.7,0.6,3.4,0.6,5c0,2.7-0.4,5.1-1,7.4c-0.8,2.3-1.7,4.2-3.2,5.9c-1.5,1.7-3.4,2.9-5.7,3.8c-2.3,1-5.1,1.3-8.4,1.3
			c-2.5,0-4.8-0.2-7.1-0.6c-2.3-0.4-4-0.8-5.3-1.1V90c-1.1,0-2.1-0.2-2.9-0.6c-1-0.2-1.5-0.6-2.1-1v-5h13V83.8z M322.1,107.2
			c-1.3,0.6-2.5,1.1-3.6,2.1v15.4c1,0.2,1.7,0.4,2.7,0.4c0.8,0,1.7,0.2,2.5,0.2c1.3,0,2.7-0.2,3.8-0.4c1.3-0.2,2.3-0.6,3.2-1.1
			c0.8-1,1.3-2.1,1.7-3.8c0.4-1.7,0.8-3.4,0.8-5.3c0-2.9-0.8-5-2.1-6.3c-1.3-1.3-3.1-1.9-5-1.9C324.5,106.4,323.2,106.8,322.1,107.2
			z"/>
		<path class="st0" d="M351.2,100.7c1-0.2,2.1-0.4,3.2-0.6s2.1-0.4,3.2-0.4s2.1-0.2,3.1-0.2c4.2,0,7.4,0.8,9.5,2.5
			c2.3,1.7,3.4,4.4,3.4,8v14.1c0,0.4,0,0.8,0.2,1.1s0.6,0.4,1,0.4s1,0,1.5-0.2c0.6-0.2,1.1-0.4,1.5-0.6v5.5c-1,0.6-1.9,1-2.9,1.1
			c-1.1,0.2-2.1,0.4-2.9,0.4c-1.9,0-3.2-0.4-4.2-1.1c-1-0.8-1.5-1.7-1.9-2.9c-1.1,1.1-2.7,2.1-4.2,2.9s-3.4,1.1-5.7,1.1
			c-3.2,0-5.7-0.8-7.6-2.3c-1.7-1.5-2.7-3.8-2.7-6.5c0-1.3,0.2-2.7,0.8-3.8c0.4-1.1,1.1-2.3,2.3-3.2c1-1,2.3-1.7,4-2.1
			c1.7-0.6,3.6-0.8,6.1-0.8c1.1,0,2.1,0,3.2,0.2c1.1,0,2.3,0.2,3.2,0.4v-2.5c0-1.9-0.6-3.2-1.7-4s-2.5-1.1-4.2-1.1
			c-0.8,0-1.5,0-2.1,0.2c-0.8,0-1.3,0.2-2.1,0.4c-0.2,1.3-0.6,2.7-1.3,3.6h-5.7v-8.8C349.3,101.3,350.3,101.1,351.2,100.7z
			 M354.7,120.9c0,0.4-0.2,1-0.2,1.3c0,0.8,0.2,1.5,0.8,2.1c0.6,0.6,1.5,1,2.9,1c1.3,0,2.7-0.2,4-0.6s2.5-1,3.4-1.7v-3.8
			c-1.1-0.2-2.1-0.4-3.2-0.4s-1.9,0-2.9,0s-1.7,0-2.5,0.2s-1.5,0.4-1.9,0.6C354.8,120,354.7,120.4,354.7,120.9z"/>
		<path class="st0" d="M403.8,125.9c0.6-0.2,1.3-0.2,2.1-0.4v-13.9c0-1.7-0.4-2.9-1.3-3.6c-1-0.8-2.1-1-3.4-1s-2.5,0.4-3.8,1
			s-2.5,1.3-3.8,2.3v15.2c0.8,0,1.3,0.2,2.1,0.4c0.8,0.2,1.3,0.4,1.7,0.8v4.4h-16.2v-4.4c0.6-0.4,1.1-0.6,1.9-0.8
			c0.8-0.2,1.5-0.4,2.5-0.4v-18.7c-0.8,0-1.3-0.2-2.3-0.4c-0.8-0.2-1.5-0.4-2.1-0.8v-5.1h10.7c0.4,0.4,0.6,1.1,0.8,1.9
			c0.2,0.8,0.4,1.5,0.4,2.3c1.5-1.5,3-2.7,4.8-3.6c1.7-1,3.8-1.5,6.1-1.5c2.9,0,5.3,0.8,7.2,2.5c1.9,1.5,2.9,4,2.9,7.4v16
			c0.8,0,1.5,0.2,2.3,0.4c0.8,0.2,1.3,0.4,1.7,0.8v4.4h-15.8v-4.4C402.7,126.3,403.3,126.1,403.8,125.9z"/>
		<path class="st0" d="M434,100.5v25c0.8,0,1.5,0.2,2.1,0.4c0.8,0.2,1.3,0.4,1.9,0.8v4.4h-16.4v-4.4c0.6-0.4,1.1-0.6,1.9-0.8
			c0.8-0.2,1.5-0.4,2.5-0.4V107c-1.9-0.2-3.4-0.6-4.4-1.3v-5.1L434,100.5L434,100.5z M433.6,94.2c-1.1,1.1-2.5,1.5-4.2,1.5
			s-3.1-0.6-4-1.5c-1.1-1.1-1.5-2.5-1.5-4s0.6-2.9,1.5-3.8c1.1-1.1,2.5-1.7,4-1.7c1.7,0,3.1,0.6,4.2,1.7s1.5,2.5,1.5,3.8
			C435.3,91.8,434.7,93.1,433.6,94.2z"/>
		<path class="st0" d="M471.1,104.9l-18.5,20.6h12.2c0-1,0.2-1.9,0.6-2.9s0.8-1.9,1.1-2.7h5.5v11.1h-30v-4.6l18.3-20.6h-10.1
			c-0.2,1.9-0.8,3.4-1.5,4.6h-5.5v-10.1h28L471.1,104.9L471.1,104.9z"/>
		<path class="st0" d="M482,100.7c1-0.2,2.1-0.4,3.2-0.6s2.1-0.4,3.2-0.4s2.1-0.2,3.1-0.2c4.2,0,7.4,0.8,9.5,2.5
			c2.3,1.7,3.4,4.4,3.4,8v14.1c0,0.4,0,0.8,0.2,1.1s0.6,0.4,1,0.4s1,0,1.5-0.2s1.1-0.4,1.5-0.6v5.5c-1,0.6-1.9,1-2.9,1.1
			c-1.1,0.2-2.1,0.4-2.9,0.4c-1.9,0-3.2-0.4-4.2-1.1c-1-0.8-1.5-1.7-1.9-2.9c-1.1,1.1-2.7,2.1-4.2,2.9s-3.4,1.1-5.7,1.1
			c-3.2,0-5.7-0.8-7.6-2.3c-1.7-1.5-2.7-3.8-2.7-6.5c0-1.3,0.2-2.7,0.8-3.8c0.4-1.1,1.1-2.3,2.3-3.2c1-1,2.3-1.7,4-2.1
			s3.6-0.8,6.1-0.8c1.1,0,2.1,0,3.2,0.2c1.1,0,2.3,0.2,3.2,0.4v-2.5c0-1.9-0.6-3.2-1.7-4s-2.5-1.1-4.2-1.1c-0.8,0-1.5,0-2.1,0.2
			c-0.8,0-1.3,0.2-2.1,0.4c-0.2,1.3-0.6,2.7-1.3,3.6H479v-8.8C480.1,101.3,481,101.1,482,100.7z M485.4,120.9c0,0.4-0.2,1-0.2,1.3
			c0,0.8,0.2,1.5,0.8,2.1s1.5,1,2.9,1c1.3,0,2.7-0.2,4-0.6s2.5-1,3.4-1.7v-3.8c-1.1-0.2-2.1-0.4-3.2-0.4s-1.9,0-2.9,0
			s-1.7,0-2.5,0.2s-1.5,0.4-1.9,0.6C485.6,120,485.6,120.4,485.4,120.9z"/>
		<path class="st0" d="M543.4,83.8V124c0,0.6,0,1,0.2,1.1c0.2,0.4,0.6,0.6,1.1,0.6c0.4,0,1,0,1.5-0.2s1.1-0.4,1.5-0.6v5.5
			c-1,0.6-1.9,1-2.9,1.1c-1.1,0.2-2.1,0.4-2.9,0.4c-2.1,0-3.4-0.4-4.4-1.1c-1-0.8-1.5-1.9-1.9-3c-2.7,2.9-6.1,4.2-9.9,4.2
			c-2.3,0-4.4-0.4-6.1-1.1c-1.7-0.8-3-1.7-4.2-3c-1.1-1.3-1.9-2.7-2.5-4.4c-0.6-1.7-0.8-3.4-0.8-5.3c0-2.9,0.4-5.3,1.1-7.6
			c0.8-2.3,1.9-4.2,3.2-5.7c1.5-1.5,3.2-2.9,5.5-3.6c2.1-1,4.8-1.3,7.6-1.3c1,0,1.9,0,2.9,0.2c1,0,1.7,0.2,2.7,0.4v-9.9
			c-1.1,0-2.1-0.2-3.1-0.6s-1.5-0.6-2.1-1v-5h13.2v-0.3H543.4z M535.4,122.1v-15.3c-1.1-0.2-2.1-0.4-3.1-0.4s-1.9-0.2-3-0.2
			s-2.1,0.2-3.2,0.4c-1.1,0.2-2.1,0.6-2.9,1.1c-0.8,1-1.3,2.3-1.7,4s-0.6,3.4-0.6,5c0,2.7,0.6,4.6,1.9,6.1c1.1,1.3,2.9,2.1,5.1,2.1
			C530.4,125.1,532.9,124,535.4,122.1z"/>
		<path class="st0" d="M552.9,110.1c0.8-2.1,1.7-4,3.2-5.5c1.3-1.5,3.2-2.9,5.1-3.6c2.1-1,4.6-1.3,7.4-1.3c2.9,0,5.1,0.4,7.2,1.1
			s3.6,1.7,5,3c1.3,1.3,2.3,2.9,2.9,4.8c0.6,1.9,1,3.8,1,5.9c0,2.5-0.4,5-1,7.1c-0.8,2.1-1.7,4-3.2,5.5c-1.3,1.5-3.2,2.9-5.3,3.6
			s-4.6,1.3-7.4,1.3c-5,0-9-1.3-11.6-3.8c-2.7-2.5-4.2-6.3-4.2-11.2C552,114.4,552.3,112.2,552.9,110.1z M564.7,106.6
			c-1,0.2-1.7,0.6-2.3,1c-0.6,1-1.1,2.1-1.5,3.6s-0.6,3.2-0.6,5c0,3.4,0.8,5.7,2.1,7.2c1.5,1.3,3.4,2.1,6.1,2.1c1,0,1.9-0.2,2.9-0.4
			s1.9-0.6,2.5-1.1c0.8-1,1.1-2.1,1.5-3.8c0.4-1.5,0.6-3.2,0.6-5c0-3-0.8-5.3-2.1-6.9c-1.3-1.5-3.4-2.3-6.3-2.3
			C566.8,106.1,565.9,106.2,564.7,106.6z"/>
		<path class="st0" d="M591,125.9c0.8-0.2,1.5-0.4,2.5-0.4v-18.7c-0.4,0-1.1-0.2-2.1-0.4c-1-0.2-1.7-0.6-2.3-1v-5.1h10.7
			c0.4,0.6,0.6,1.1,1,2.1c0.2,1,0.4,1.9,0.4,2.9v0.2c1.7-2.1,3.2-3.4,5.1-4.4c1.7-1,3.6-1.3,5.9-1.3c0.8,0,1.3,0,2.1,0.2
			c0.6,0,1.1,0.2,1.7,0.4v11.2h-5.5c-0.8-1.1-1.3-2.5-1.5-4c-1.1,0-2.3,0.4-3.4,1c-1.1,0.6-2.3,1.3-3.4,2.5v14.1h0.2
			c1.1,0,2.1,0.2,3,0.4c1,0.2,1.5,0.6,2.1,1v4.4h-17.7v-4.4C589.7,126.3,590.3,126.1,591,125.9z"/>
		<path class="st0" d="M624.2,100.7c1-0.2,2.1-0.4,3.2-0.6c1.1-0.2,2.1-0.4,3.2-0.4c1.1,0,2.1-0.2,3.1-0.2c4.2,0,7.4,0.8,9.5,2.5
			c2.3,1.7,3.4,4.4,3.4,8v14.1c0,0.4,0,0.8,0.2,1.1s0.6,0.4,1,0.4s1,0,1.5-0.2s1.1-0.4,1.5-0.6v5.5c-1,0.6-1.9,1-2.9,1.1
			c-1.1,0.2-2.1,0.4-2.9,0.4c-1.9,0-3.2-0.4-4.2-1.1c-1-0.8-1.5-1.7-1.9-2.9c-1.1,1.1-2.7,2.1-4.2,2.9s-3.4,1.1-5.7,1.1
			c-3.2,0-5.7-0.8-7.6-2.3c-1.7-1.5-2.7-3.8-2.7-6.5c0-1.3,0.2-2.7,0.8-3.8c0.4-1.1,1.1-2.3,2.3-3.2c1-1,2.3-1.7,4-2.1
			c1.7-0.6,3.6-0.8,6.1-0.8c1.1,0,2.1,0,3.2,0.2c1.1,0,2.3,0.2,3.2,0.4v-2.5c0-1.9-0.6-3.2-1.7-4c-1.1-0.8-2.5-1.1-4.2-1.1
			c-0.8,0-1.5,0-2.1,0.2c-0.8,0-1.3,0.2-2.1,0.4c-0.2,1.3-0.6,2.7-1.3,3.6h-5.7v-8.8C622.3,101.3,623.2,101.1,624.2,100.7z
			 M627.6,120.9c0,0.4-0.2,1-0.2,1.3c0,0.8,0.2,1.5,0.8,2.1s1.5,1,2.9,1c1.3,0,2.7-0.2,4-0.6s2.5-1,3.4-1.7v-3.8
			c-1.1-0.2-2.1-0.4-3.2-0.4s-1.9,0-2.9,0s-1.7,0-2.5,0.2s-1.5,0.4-1.9,0.6C627.8,120,627.6,120.4,627.6,120.9z"/>
		<path class="st0" d="M227.5,188.9c0.6-0.4,1.3-0.6,2.3-0.8s1.9-0.4,2.9-0.4l0.8-32.2c-1.3,0-2.5-0.2-3.4-0.4s-1.5-0.6-1.9-0.8
			v-5.1h17.7l11.1,33.9l11.1-33.9h17.5v5.1c-0.6,0.4-1.1,0.6-2.1,0.8s-1.9,0.4-3.2,0.4l0.8,32.2c1.1,0,2.1,0.2,3,0.4
			c1,0.2,1.5,0.6,2.1,0.8v5.1h-18.3v-5.1c0.4-0.2,1-0.4,1.9-0.8c1-0.2,1.9-0.4,2.9-0.4l-0.8-29l-11.1,33.7h-9.3l-11.1-33.9l-0.8,29
			c1.1,0,1.9,0.2,2.9,0.4c0.8,0.2,1.5,0.6,2.1,0.8v5.1h-17C227.5,193.9,227.5,188.9,227.5,188.9z"/>
		<path class="st0" d="M299.8,163.4V183c0,1.7,0.4,2.9,1.3,3.6s1.9,1,3.1,1c1.3,0,2.7-0.2,3.8-0.8c1.1-0.6,2.5-1.3,3.4-2.1v-15.1
			c-0.8,0-1.5-0.2-2.3-0.4s-1.3-0.4-1.7-0.8v-5.1h12.2v23.4c0,0.6,0,1,0.2,1.1c0.2,0.4,0.4,0.6,1,0.6c0.4,0,1,0,1.5-0.2
			c0.6-0.2,1.1-0.4,1.5-0.6v5.5c-1,0.6-1.9,1-2.9,1.1c-1.1,0.2-2.1,0.4-2.9,0.4c-2.1,0-3.6-0.4-4.6-1.3c-1-1-1.5-1.9-1.9-3
			c-1.3,1.3-2.9,2.5-4.6,3.2c-1.7,0.8-3.4,1.1-5.5,1.1c-1.3,0-2.7-0.2-3.8-0.6c-1.1-0.4-2.3-1-3.2-1.7s-1.5-1.7-2.1-3
			s-0.8-2.9-0.8-4.8v-15.1c-1,0-1.7-0.2-2.5-0.4s-1.3-0.4-1.9-0.8V163C287.2,163.4,299.8,163.4,299.8,163.4z"/>
		<path class="st0" d="M349.3,188.8c0.6-0.2,1.3-0.2,2.1-0.4v-13.9c0-1.7-0.4-2.9-1.3-3.6c-1-0.8-2.1-1-3.4-1s-2.5,0.4-3.8,1
			s-2.5,1.3-3.8,2.3v15.2c0.8,0,1.3,0.2,2.1,0.4c0.8,0.2,1.3,0.4,1.7,0.8v4.4h-16.2v-4.4c0.6-0.4,1.1-0.6,1.9-0.8s1.5-0.4,2.5-0.4
			v-18.5c-0.8,0-1.3-0.2-2.3-0.4c-0.8-0.2-1.5-0.4-2.1-0.8v-5.1h10.7c0.4,0.4,0.6,1.1,0.8,1.9c0.2,0.8,0.4,1.5,0.4,2.3
			c1.5-1.5,3-2.7,4.8-3.6c1.7-1,3.8-1.5,6.1-1.5c2.9,0,5.3,0.8,7.2,2.5c1.9,1.5,2.9,4,2.9,7.4v16c0.8,0,1.5,0.2,2.3,0.4
			s1.3,0.4,1.7,0.8v4.4h-15.8v-4.4C348,189.4,348.6,188.9,349.3,188.8z"/>
		<path class="st0" d="M378.1,163.4v25c0.8,0,1.5,0.2,2.1,0.4c0.8,0.2,1.3,0.4,1.9,0.8v4.4h-16.4v-4.4c0.6-0.4,1.1-0.6,1.9-0.8
			s1.5-0.4,2.5-0.4v-18.5c-1.9-0.2-3.4-0.6-4.4-1.3v-5.1C365.7,163.4,378.1,163.4,378.1,163.4z M377.9,157.1
			c-1.1,1.1-2.5,1.5-4.2,1.5s-3-0.6-4-1.5c-1.1-1.1-1.5-2.5-1.5-4s0.6-2.9,1.5-3.8c1.1-1.1,2.5-1.7,4-1.7c1.7,0,3.1,0.6,4.2,1.7
			c1.1,1.1,1.5,2.5,1.5,3.8C379.6,154.9,379.1,156.1,377.9,157.1z"/>
		<path class="st0" d="M407.8,174.2c-1-1.1-1.5-2.9-1.7-4.8c-0.6,0-1.3-0.2-1.9-0.2s-1.3,0-2.1,0c-1,0-2.1,0.2-3.2,0.4
			s-2.1,0.6-2.9,1.1c-0.6,0.8-1,1.7-1.5,3.2c-0.6,1.5-0.8,3.2-0.8,5.5c0,3.2,0.8,5.5,2.3,7.1c1.5,1.5,3.6,2.3,6.5,2.3
			c2.1,0,4.2-0.2,6.1-0.8s3.6-1,4.8-1.5v5.9c-1,0.4-2.3,1-4.4,1.5c-2.1,0.6-4.6,0.8-7.4,0.8c-3,0-5.7-0.4-7.8-1.1
			c-2.1-0.8-3.6-1.9-5-3.2c-1.3-1.3-2.1-2.9-2.7-4.8c-0.6-1.7-0.8-3.8-0.8-5.7c0-2.3,0.4-4.6,1-6.7c0.8-2.1,1.7-4,3.2-5.5
			s3.2-2.9,5.3-3.8c2.1-1,4.8-1.3,7.8-1.3c2.1,0,4,0.2,5.7,0.4c1.9,0.2,3.4,0.6,5,1.1v10.3h-5.5V174.2z"/>
		<path class="st0" d="M430.5,163.4v25c0.8,0,1.5,0.2,2.1,0.4c0.8,0.2,1.3,0.4,1.9,0.8v4.4h-16.4v-4.4c0.6-0.4,1.1-0.6,1.9-0.8
			s1.5-0.4,2.5-0.4v-18.5c-1.9-0.2-3.4-0.6-4.4-1.3v-5.1C418.1,163.4,430.5,163.4,430.5,163.4z M430.1,157.1
			c-1.1,1.1-2.5,1.5-4.2,1.5s-3.1-0.6-4-1.5c-1.1-1.1-1.5-2.5-1.5-4s0.6-2.9,1.5-3.8c1.1-1.1,2.5-1.7,4-1.7c1.7,0,3,0.6,4.2,1.7
			c1.1,1.1,1.5,2.5,1.5,3.8C431.9,154.9,431.3,156.1,430.1,157.1z"/>
		<path class="st0" d="M441.2,202.4v-32.6h-0.4c-0.8,0-1.5-0.2-2.1-0.4c-0.8-0.2-1.3-0.4-1.9-0.8v-5.1h10.7c0.2,0.4,0.6,1,0.8,1.7
			c0.2,0.8,0.4,1.5,0.4,2.3c3-3.2,6.5-5,10.7-5c2.5,0,4.6,0.4,6.3,1.3c1.7,1,3,1.9,4,3.2s1.7,2.9,2.1,4.6c0.4,1.7,0.6,3.2,0.6,4.8
			c0,5.7-1.5,10.1-4.6,13.5c-3,3.2-7.6,5-13.7,5c-1.7,0-3.2-0.2-4.6-0.4v8.2c1.1,0,2.3,0.2,3.2,0.4c1,0.2,1.7,0.6,2.1,0.8v4.4H437
			V204C438,203.1,439.3,202.6,441.2,202.4z M452.8,170.2c-1.1,0.6-2.5,1.3-3.6,2.5v15c1,0.2,1.7,0.4,2.7,0.4c0.8,0,1.7,0.2,2.7,0.2
			c1.1,0,2.5-0.2,3.8-0.4s2.3-0.6,3-1.1c0.8-1,1.3-2.3,1.7-3.8c0.4-1.7,0.8-3.4,0.8-5.1c0-2.9-0.6-5-1.9-6.3s-3.1-1.9-5-1.9
			C455.3,169.4,454,169.6,452.8,170.2z"/>
		<path class="st0" d="M481.2,163.8c1-0.2,2.1-0.4,3.2-0.6c1.1-0.2,2.1-0.4,3.2-0.4s2.1-0.2,3-0.2c4.2,0,7.4,0.8,9.5,2.5
			c2.3,1.7,3.4,4.4,3.4,8v14.1c0,0.4,0,0.8,0.2,1.1c0.2,0.4,0.6,0.4,1,0.4s1,0,1.5-0.2c0.6-0.2,1.1-0.4,1.5-0.6v5.5
			c-1,0.6-1.9,1-2.9,1.1c-1.1,0.2-2.1,0.4-2.9,0.4c-1.9,0-3.2-0.4-4.2-1.1s-1.5-1.7-1.9-2.9c-1.1,1.1-2.7,2.1-4.2,2.9
			s-3.4,1.1-5.7,1.1c-3.2,0-5.7-0.8-7.6-2.3c-1.7-1.5-2.7-3.8-2.7-6.5c0-1.3,0.2-2.7,0.8-3.8c0.4-1.1,1.1-2.3,2.3-3.2
			c1-1,2.3-1.7,4-2.1c1.7-0.4,3.6-0.8,6.1-0.8c1.1,0,2.1,0,3.2,0.2c1.1,0,2.3,0.2,3.2,0.4v-2.5c0-1.9-0.6-3.2-1.7-4
			s-2.5-1.1-4.2-1.1c-0.8,0-1.5,0-2.1,0.2c-0.8,0-1.3,0.2-2.1,0.4c-0.2,1.3-0.6,2.7-1.3,3.6h-5.7v-8.6
			C479.3,164.1,480.3,163.9,481.2,163.8z M484.7,183.8c0,0.4-0.2,1-0.2,1.3c0,0.8,0.2,1.5,0.8,2.1c0.6,0.6,1.5,1,2.9,1
			c1.3,0,2.7-0.2,4-0.6c1.3-0.4,2.5-1,3.4-1.7v-3.8c-1.1-0.2-2.1-0.4-3.2-0.4s-1.9,0-2.9,0s-1.7,0-2.5,0.2s-1.5,0.4-1.9,0.6
			C484.9,182.9,484.7,183.4,484.7,183.8z"/>
		<path class="st0" d="M511.3,188.8c0.8-0.2,1.5-0.4,2.5-0.4v-35.3c-1.1,0-2.1-0.2-2.9-0.6c-0.8-0.2-1.5-0.6-1.9-1v-5h13v41.7
			c0.8,0,1.5,0.2,2.3,0.4s1.3,0.4,1.7,0.8v4.4h-16.4v-4.4C510,189.4,510.6,188.9,511.3,188.8z"/>
		<path class="st0" d="M565.9,156.1c-1-0.2-1.9-0.4-3.1-0.4c-1.1-0.2-2.1-0.2-3.2-0.2c-0.8,0-1.5,0-2.3,0.2s-1.5,0.2-2.3,0.4
			s-1.5,0.4-2.3,0.6c-0.8,0.2-1.3,0.4-1.7,0.8c-0.2,0.6-0.4,1.3-0.6,2.1c-0.2,0.8-0.2,1.3-0.2,1.9c0,0.6,0.2,1.1,0.4,1.7
			c0.2,0.6,0.8,1,1.3,1.5c0.8,0.6,1.7,1,2.9,1.5c1.1,0.6,2.9,1.1,4.8,1.9c2.9,1.1,5.3,2.1,7.2,2.9c1.9,1,3.4,1.9,4.6,2.9
			c1.1,1,1.9,2.1,2.5,3.2c0.6,1.1,0.8,2.5,0.8,4c0,2.7-0.6,5-1.5,6.9s-2.3,3.2-4,4.4c-1.7,1.1-3.6,1.9-6.1,2.5
			c-2.3,0.6-5,0.8-7.8,0.8c-1,0-1.9,0-3.2,0c-1.1,0-2.5-0.2-3.8-0.2c-1.3-0.2-2.7-0.2-3.8-0.6c-1.3-0.2-2.5-0.4-3.4-0.8v-13.4h5.5
			c0.6,0.8,1,1.7,1.1,2.9s0.4,2.5,0.6,4c1.1,0.2,2.5,0.4,3.8,0.6c1.3,0.2,2.7,0.2,3.8,0.2c1.9,0,3.6-0.2,5.3-0.4s3-0.6,4-1.1
			c0.2-0.6,0.4-1.1,0.6-2.1c0.2-0.8,0.2-1.7,0.2-2.3s-0.2-1.1-0.4-1.7c-0.4-0.6-0.8-1-1.5-1.5c-0.8-0.6-1.7-1-3-1.5
			c-1.3-0.6-2.9-1.1-4.8-1.9c-2.9-1.1-5.3-1.9-7.1-2.9c-1.9-0.8-3.4-1.7-4.4-2.7c-1.1-1-1.9-1.9-2.3-3.2c-0.4-1.1-0.6-2.7-0.6-4.4
			c0-1.9,0.4-3.6,1-5.1c0.6-1.7,1.7-3,3.1-4.4c1.5-1.3,3.2-2.3,5.5-3c2.3-0.8,5.1-1.1,8.6-1.1c2.7,0,5.1,0.2,7.4,0.4
			c2.3,0.2,4.2,0.6,5.5,1.1v12.2h-5.5C566.6,160.4,566.1,158.4,565.9,156.1z"/>
		<path class="st0" d="M579.4,185.6c1.1-1,2.3-1.5,3.8-1.5s2.7,0.6,3.8,1.5c1.1,1,1.5,2.3,1.5,3.8s-0.6,2.7-1.5,3.8
			c-1.1,1-2.3,1.5-3.8,1.5s-2.7-0.6-3.8-1.5c-1.1-1-1.5-2.3-1.5-3.8S578.4,186.6,579.4,185.6z"/>
		<path class="st0" d="M590.5,188.9c1.1-0.6,2.7-1,4.8-1.1l14.7-38.5h9.7l14.5,38.5c1.1,0,2.1,0.2,2.9,0.4c1,0.2,1.5,0.4,2.1,0.8
			v5.1h-19.4V189c0.6-0.4,1.3-0.6,2.3-0.8s2.1-0.4,3.1-0.4l-2.7-7.1h-17.2l-2.7,7.1c1.1,0,2.1,0.2,3,0.4c1,0.2,1.9,0.6,2.5,0.8v5.1
			h-17.7V189L590.5,188.9L590.5,188.9z M619.8,173.9l-6.1-16.4l-6.1,16.4H619.8z"/>
		<path class="st0" d="M642.3,185.6c1.1-1,2.3-1.5,3.8-1.5s2.7,0.6,3.8,1.5c1.1,1,1.5,2.3,1.5,3.8s-0.6,2.7-1.5,3.8
			c-1.1,1-2.3,1.5-3.8,1.5s-2.7-0.6-3.8-1.5c-1.1-1-1.5-2.3-1.5-3.8S641.2,186.6,642.3,185.6z"/>
	</g>
	<g>
		<path class="st0" d="M227.9,226.6c1.1-0.2,2.7-0.4,4.6-0.4c2.3,0,3.8,0.4,5,1.3c1,0.8,1.7,2.1,1.7,3.6s-0.6,2.9-1.5,3.8
			c-1.1,1.1-3,1.7-5.3,1.7c-0.6,0-1.1,0-1.5-0.2v6.3h-3V226.6L227.9,226.6L227.9,226.6z M230.9,234.4c0.4,0.2,1,0.2,1.5,0.2
			c2.3,0,3.6-1.1,3.6-3s-1.3-2.9-3.4-2.9c-0.8,0-1.5,0-1.7,0.2L230.9,234.4L230.9,234.4z"/>
		<path class="st0" d="M241.8,226.6c1.1-0.2,2.9-0.4,4.6-0.4c2.5,0,4,0.4,5.1,1.3c1,0.8,1.5,1.9,1.5,3.4c0,2.1-1.5,3.6-3,4.2l0,0
			c1.1,0.4,1.9,1.5,2.3,3.2c0.6,2.1,1,4,1.3,4.6h-3c-0.2-0.6-0.6-1.9-1.1-4c-0.4-2.1-1.3-2.9-3-2.9H245v6.9h-3.1v-16.3H241.8z
			 M244.9,234.1h1.7c2.1,0,3.4-1.1,3.4-2.7c0-1.9-1.3-2.7-3.2-2.7c-1,0-1.5,0-1.9,0.2V234.1z"/>
		<path class="st0" d="M265.1,235.9h-6.3v5h7.1v2.5h-10.1v-16.6h9.7v2.5h-6.7v4.4h6.3C265.1,233.6,265.1,235.9,265.1,235.9z"/>
		<path class="st0" d="M268.5,226.4h9.5v2.5h-6.5v4.6h6.1v2.5h-6.1v7.1h-3V226.4z"/>
		<path class="st0" d="M290.4,235.9h-6.3v5h7.1v2.5h-10.1v-16.6h9.7v2.5h-6.7v4.4h6.3V235.9z"/>
		<path class="st0" d="M296.9,226.4v16.6h-3v-16.6H296.9z"/>
		<path class="st0" d="M303.6,228.9h-4.8v-2.5h12.6v2.5h-4.8v14.1h-3L303.6,228.9L303.6,228.9z"/>
		<path class="st0" d="M316.3,226.4v9.7c0,3.2,1.3,4.8,3.4,4.8c2.3,0,3.4-1.5,3.4-4.8v-9.7h3v9.5c0,5.1-2.7,7.4-6.7,7.4
			c-3.8,0-6.3-2.1-6.3-7.4v-9.5H316.3z"/>
		<path class="st0" d="M329.9,226.6c1.1-0.2,2.9-0.4,4.6-0.4c2.5,0,4,0.4,5.1,1.3c1,0.8,1.5,1.9,1.5,3.4c0,2.1-1.5,3.6-3.1,4.2l0,0
			c1.1,0.4,1.9,1.5,2.3,3.2c0.6,2.1,1,4,1.3,4.6h-3c-0.2-0.6-0.6-1.9-1.1-4c-0.4-2.1-1.3-2.9-3.1-2.9h-1.5v6.9h-3.1L329.9,226.6
			L329.9,226.6z M332.9,234.1h1.7c2.1,0,3.4-1.1,3.4-2.7c0-1.9-1.3-2.7-3.2-2.7c-1,0-1.5,0-1.9,0.2V234.1z"/>
		<path class="st0" d="M347.4,238.4l-1.5,4.8h-3l5.3-16.6h3.8l5.3,16.6h-3.2l-1.5-4.8H347.4z M352.2,236.2l-1.3-4.2
			c-0.4-1-0.6-2.1-0.8-3l0,0c-0.2,1-0.6,2.1-0.8,3l-1.3,4.2H352.2z"/>
		<path class="st0" d="M364.9,226.6c1.3-0.2,3.1-0.4,4.8-0.4c3,0,5.3,0.6,6.9,1.9s2.7,3.2,2.7,6.1c0,3-1,5.1-2.7,6.7
			c-1.7,1.5-4.4,2.3-7.6,2.3c-1.7,0-3.1-0.2-4.2-0.2v-16.4L364.9,226.6L364.9,226.6z M368,240.8c0.4,0,1.1,0,1.7,0
			c4,0,6.3-2.1,6.3-6.3c0-3.6-2.1-5.7-5.9-5.7c-1,0-1.7,0-2.1,0.2V240.8L368,240.8z"/>
		<path class="st0" d="M391.1,235.9h-6.3v5h7.1v2.5h-10.1v-16.6h9.7v2.5h-6.7v4.4h6.3V235.9z"/>
		<path class="st0" d="M399.5,239.9c1,0.6,2.5,1.1,4,1.1c1.9,0,3.1-1,3.1-2.3s-0.8-2.1-3.1-2.9c-2.7-1-4.6-2.5-4.6-4.8
			c0-2.7,2.3-4.8,5.9-4.8c1.7,0,3.1,0.4,4,0.8l-0.8,2.5c-0.6-0.4-1.7-0.8-3.2-0.8c-1.9,0-2.9,1-2.9,2.1c0,1.3,1,1.9,3.2,2.7
			c2.9,1.1,4.4,2.5,4.4,5c0,2.7-2.1,5-6.3,5c-1.7,0-3.6-0.6-4.6-1L399.5,239.9z"/>
		<path class="st0" d="M415.8,238.4l-1.5,4.8h-3.1l5.3-16.6h3.8l5.3,16.6h-3.2l-1.5-4.8H415.8z M415.3,225.6c0-1.9,0.6-2.9,1.7-2.9
			c0.6,0,1.1,0.2,1.5,0.6c0.4,0.2,0.8,0.4,1.1,0.4c0.4,0,0.6-0.2,0.8-1h1.5c0,1.9-0.6,2.9-1.9,2.9c-0.6,0-1.1-0.2-1.5-0.4
			s-0.8-0.4-1.1-0.4c-0.4,0-0.6,0.4-0.6,1.1h-1.5V225.6z M420.6,236.2l-1.3-4.2c-0.4-1-0.6-2.1-0.8-3l0,0c-0.2,1-0.6,2.1-0.8,3
			l-1.3,4.2H420.6z"/>
		<path class="st0" d="M442.3,234.6c0,5.5-3.4,8.8-8,8.8c-4.8,0-7.6-3.6-7.6-8.4c0-5.1,3.2-8.8,7.8-8.8
			C439.5,226.2,442.3,229.9,442.3,234.6z M430,234.9c0,3.4,1.7,6.1,4.6,6.1s4.6-2.7,4.6-6.3c0-3-1.5-6.1-4.6-6.1
			C431.7,228.8,430,231.4,430,234.9z"/>
		<path class="st0" d="M453.4,226.4h3.1v10.9c0,4.6-2.3,6.1-5.5,6.1c-0.8,0-1.9-0.2-2.5-0.4l0.4-2.5c0.6,0.2,1.1,0.4,1.9,0.4
			c1.7,0,2.9-0.8,2.9-3.6v-10.9H453.4z"/>
		<path class="st0" d="M474.6,234.6c0,5.5-3.4,8.8-8,8.8c-4.8,0-7.6-3.6-7.6-8.4c0-5.1,3.2-8.8,7.8-8.8
			C471.7,226.2,474.6,229.9,474.6,234.6z M462.2,234.9c0,3.4,1.7,6.1,4.6,6.1s4.6-2.7,4.6-6.3c0-3-1.5-6.1-4.6-6.1
			C463.7,228.8,462.2,231.4,462.2,234.9z"/>
		<path class="st0" d="M477.2,239.9c1,0.6,2.5,1.1,4,1.1c1.9,0,3.1-1,3.1-2.3s-0.8-2.1-3.1-2.9c-2.7-1-4.6-2.5-4.6-4.8
			c0-2.7,2.3-4.8,5.9-4.8c1.7,0,3,0.4,4,0.8l-0.8,2.5c-0.6-0.4-1.7-0.8-3.2-0.8c-1.9,0-2.9,1-2.9,2.1c0,1.3,1,1.9,3.2,2.7
			c2.9,1.1,4.4,2.5,4.4,5c0,2.7-2.1,5-6.3,5c-1.7,0-3.6-0.6-4.6-1L477.2,239.9z"/>
		<path class="st0" d="M499.3,235.9H493v5h7.1v2.5H490v-16.6h9.7v2.5H493v4.4h6.3V235.9z M499,222.6l-3,3h-2.5l2.1-3H499z"/>
		<path class="st0" d="M507.9,226.6c1.3-0.2,3.1-0.4,4.8-0.4c3,0,5.3,0.6,6.9,1.9s2.7,3.2,2.7,6.1c0,3-1,5.1-2.7,6.7
			c-1.7,1.5-4.4,2.3-7.6,2.3c-1.7,0-3.1-0.2-4.2-0.2v-16.4L507.9,226.6L507.9,226.6z M511,240.8c0.4,0,1.1,0,1.7,0
			c4,0,6.3-2.1,6.3-6.3c0-3.6-2.1-5.7-5.9-5.7c-1,0-1.7,0-2.1,0.2V240.8L511,240.8z"/>
		<path class="st0" d="M539.6,234.6c0,5.5-3.4,8.8-8,8.8c-4.8,0-7.6-3.6-7.6-8.4c0-5.1,3.2-8.8,7.8-8.8
			C536.7,226.2,539.6,229.9,539.6,234.6z M527.2,234.9c0,3.4,1.7,6.1,4.6,6.1s4.6-2.7,4.6-6.3c0-3-1.5-6.1-4.6-6.1
			C528.7,228.8,527.2,231.4,527.2,234.9z"/>
		<path class="st0" d="M542,239.9c1,0.6,2.5,1.1,4,1.1c1.9,0,3-1,3-2.3s-0.8-2.1-3-2.9c-2.7-1-4.6-2.5-4.6-4.8
			c0-2.7,2.3-4.8,5.9-4.8c1.7,0,3,0.4,4,0.8l-0.8,2.5c-0.6-0.4-1.7-0.8-3.2-0.8c-1.9,0-2.9,1-2.9,2.1c0,1.3,1,1.9,3.2,2.7
			c2.9,1.1,4.4,2.5,4.4,5c0,2.7-2.1,5-6.3,5c-1.7,0-3.6-0.6-4.6-1L542,239.9z"/>
		<path class="st0" d="M572,242.6c-0.8,0.4-2.3,0.8-4.4,0.8c-5.3,0-8.6-3.2-8.6-8.4c0-5.5,3.8-8.8,9-8.8c2.1,0,3.4,0.4,4,0.8
			l-0.8,2.5c-0.8-0.4-1.9-0.6-3.2-0.6c-3.4,0-5.9,2.1-5.9,6.1c0,3.6,2.1,6.1,5.7,6.1c1.1,0,2.5-0.2,3.2-0.6L572,242.6z"/>
		<path class="st0" d="M578.1,238.4l-1.5,4.8h-3.1l5.3-16.6h3.8l5.3,16.6h-3.2l-1.5-4.8H578.1z M582.8,236.2l-1.3-4.2
			c-0.4-1-0.6-2.1-0.8-3l0,0c-0.2,1-0.6,2.1-0.8,3l-1.3,4.2H582.8z"/>
		<path class="st0" d="M604.6,236.4c-0.2-2.1-0.2-4.8-0.2-7.1l0,0c-0.6,2.1-1.1,4.2-1.9,6.3l-2.5,7.2h-2.3l-2.3-7.1
			c-0.6-2.1-1.1-4.4-1.7-6.5l0,0c0,2.1-0.2,4.8-0.4,7.1l-0.4,6.7H590l1.1-16.6h4l2.1,6.7c0.6,1.9,1.1,4,1.5,5.7l0,0
			c0.4-1.7,1-3.8,1.7-5.7l2.3-6.7h4l1,16.6h-3L604.6,236.4z"/>
		<path class="st0" d="M610.9,226.6c1.1-0.2,2.7-0.4,4.6-0.4c2.3,0,3.8,0.4,5,1.3c1,0.8,1.7,2.1,1.7,3.6s-0.6,2.9-1.5,3.8
			c-1.1,1.1-3.1,1.7-5.3,1.7c-0.6,0-1.1,0-1.5-0.2v6.3h-3V226.6L610.9,226.6L610.9,226.6z M613.9,234.4c0.4,0.2,1,0.2,1.5,0.2
			c2.3,0,3.6-1.1,3.6-3s-1.3-2.9-3.4-2.9c-0.8,0-1.5,0-1.7,0.2L613.9,234.4L613.9,234.4z"/>
		<path class="st0" d="M639.4,234.6c0,5.5-3.4,8.8-8,8.8c-4.8,0-7.6-3.6-7.6-8.4c0-5.1,3.2-8.8,7.8-8.8
			C636.6,226.2,639.4,229.9,639.4,234.6z M627.1,234.9c0,3.4,1.7,6.1,4.6,6.1c2.9,0,4.6-2.7,4.6-6.3c0-3-1.5-6.1-4.6-6.1
			C628.6,228.8,627.1,231.4,627.1,234.9z"/>
		<path class="st0" d="M642.1,239.9c1,0.6,2.5,1.1,4,1.1c1.9,0,3.1-1,3.1-2.3s-0.8-2.1-3.1-2.9c-2.7-1-4.6-2.5-4.6-4.8
			c0-2.7,2.3-4.8,5.9-4.8c1.7,0,3,0.4,4,0.8l-0.8,2.5c-0.6-0.4-1.7-0.8-3.2-0.8c-1.9,0-2.9,1-2.9,2.1c0,1.3,1,1.9,3.2,2.7
			c2.9,1.1,4.4,2.5,4.4,5c0,2.7-2.1,5-6.3,5c-1.7,0-3.6-0.6-4.6-1L642.1,239.9z"/>
	</g>
</g>
</svg>
